# xmcd
#
# Track frame offsets:
#	150
#	9747
#	33985
#	59025
#	85617
#	109710
#	117765
#	133800
#	149242
#	168507
#	186405
#	205962
#	223865
#	246700
#	256557
#	274932
#	298265
#	323169
#
# Disc length: 4434 seconds
#
# Revision: 0
# Processed by: cddbd v1.5.1PL2 Copyright (c) Steve Scherf et al.
# Submitted via: dBpowerAMP V4.0
#
DISCID=27115012
DTITLE=Berry Juice Records Inc. - Tha Come Up
DYEAR=1997
DGENRE=Gangsta
TTITLE0=Intro
TTITLE1=Deadly PlayGround-DNOD
TTITLE2=Money Makin Soldiers-Money Makin Soldiers
TTITLE3=Gangsta Militia-Deuce Click
TTITLE4=Bloody Murder-Mistress of Darkness
TTITLE5=interlude
TTITLE6=121-HazBenz
TTITLE7=Caskets In My Vision-Mental Case
TTITLE8=Nation Hoes-Barnone
TTITLE9=Take It Lightly-Mistress of Darkness
TTITLE10=High Hustlers-HazBenz
TTITLE11=Barnone-Barnone
TTITLE12=PlayMaster-Deuce Click
TTITLE13=Grim Reaper Interlude
TTITLE14=Murder-Mental Case
TTITLE15=To Who It May Concern-Money Makin Soldiers
TTITLE16=Lord Of Illusion-DNOD
TTITLE17=Outro
EXTD=
EXTT0=
EXTT1=
EXTT2=
EXTT3=
EXTT4=
EXTT5=
EXTT6=
EXTT7=
EXTT8=
EXTT9=
EXTT10=
EXTT11=
EXTT12=
EXTT13=
EXTT14=
EXTT15=
EXTT16=
EXTT17=
PLAYORDER=
